<mxfile host="app.diagrams.net" agent="Mozilla/5.0 (Windows NT 10.0; Win64; x64) AppleWebKit/537.36 (KHTML, like Gecko) Chrome/132.0.0.0 Safari/537.36 Edg/132.0.0.0" version="26.0.6">
  <diagram id="C5RBs43oDa-KdzZeNtuy" name="Page-1">
    <mxGraphModel dx="2020" dy="2220" grid="1" gridSize="10" guides="1" tooltips="1" connect="1" arrows="1" fold="1" page="1" pageScale="1" pageWidth="827" pageHeight="1169" math="0" shadow="0">
      <root>
        <mxCell id="WIyWlLk6GJQsqaUBKTNV-0" />
        <mxCell id="WIyWlLk6GJQsqaUBKTNV-1" parent="WIyWlLk6GJQsqaUBKTNV-0" />
        <mxCell id="WIyWlLk6GJQsqaUBKTNV-2" value="" style="rounded=0;html=1;jettySize=auto;orthogonalLoop=1;fontSize=11;endArrow=block;endFill=0;endSize=8;strokeWidth=1;shadow=0;labelBackgroundColor=none;edgeStyle=orthogonalEdgeStyle;" parent="WIyWlLk6GJQsqaUBKTNV-1" source="WIyWlLk6GJQsqaUBKTNV-3" target="WIyWlLk6GJQsqaUBKTNV-6" edge="1">
          <mxGeometry relative="1" as="geometry" />
        </mxCell>
        <mxCell id="WIyWlLk6GJQsqaUBKTNV-3" value="&#xa; relational diagram based &#xa;&#xa;" style="rounded=1;whiteSpace=wrap;html=1;fontSize=12;glass=0;strokeWidth=1;shadow=0;" parent="WIyWlLk6GJQsqaUBKTNV-1" vertex="1">
          <mxGeometry x="160" y="80" width="120" height="40" as="geometry" />
        </mxCell>
        <mxCell id="WIyWlLk6GJQsqaUBKTNV-4" value="Yes" style="rounded=0;html=1;jettySize=auto;orthogonalLoop=1;fontSize=11;endArrow=block;endFill=0;endSize=8;strokeWidth=1;shadow=0;labelBackgroundColor=none;edgeStyle=orthogonalEdgeStyle;" parent="WIyWlLk6GJQsqaUBKTNV-1" source="WIyWlLk6GJQsqaUBKTNV-6" target="WIyWlLk6GJQsqaUBKTNV-10" edge="1">
          <mxGeometry y="20" relative="1" as="geometry">
            <mxPoint as="offset" />
          </mxGeometry>
        </mxCell>
        <mxCell id="WIyWlLk6GJQsqaUBKTNV-5" value="" style="edgeStyle=orthogonalEdgeStyle;rounded=0;html=1;jettySize=auto;orthogonalLoop=1;fontSize=11;endArrow=block;endFill=0;strokeWidth=1;shadow=0;labelBackgroundColor=none;" parent="WIyWlLk6GJQsqaUBKTNV-1" source="WIyWlLk6GJQsqaUBKTNV-6" target="WIyWlLk6GJQsqaUBKTNV-7" edge="1">
          <mxGeometry y="10" relative="1" as="geometry">
            <mxPoint as="offset" />
          </mxGeometry>
        </mxCell>
        <mxCell id="WIyWlLk6GJQsqaUBKTNV-6" value="&lt;ol&gt;&lt;li&gt;&lt;strong&gt;Hotel&lt;/strong&gt; table&lt;/li&gt;&lt;/ol&gt;" style="rhombus;whiteSpace=wrap;html=1;shadow=0;fontFamily=Helvetica;fontSize=12;align=center;strokeWidth=1;spacing=6;spacingTop=-4;" parent="WIyWlLk6GJQsqaUBKTNV-1" vertex="1">
          <mxGeometry x="80" y="190" width="190" height="80" as="geometry" />
        </mxCell>
        <mxCell id="hEsW2uKou0CnbDLXWxYv-0" value="" style="edgeStyle=orthogonalEdgeStyle;rounded=0;orthogonalLoop=1;jettySize=auto;html=1;" edge="1" parent="WIyWlLk6GJQsqaUBKTNV-1" source="hEsW2uKou0CnbDLXWxYv-1" target="WIyWlLk6GJQsqaUBKTNV-12">
          <mxGeometry relative="1" as="geometry">
            <Array as="points">
              <mxPoint x="390" y="210" />
            </Array>
          </mxGeometry>
        </mxCell>
        <mxCell id="hEsW2uKou0CnbDLXWxYv-19" value="" style="edgeStyle=orthogonalEdgeStyle;rounded=0;orthogonalLoop=1;jettySize=auto;html=1;" edge="1" parent="WIyWlLk6GJQsqaUBKTNV-1" source="WIyWlLk6GJQsqaUBKTNV-7" target="hEsW2uKou0CnbDLXWxYv-18">
          <mxGeometry relative="1" as="geometry" />
        </mxCell>
        <mxCell id="WIyWlLk6GJQsqaUBKTNV-7" value="&#xa;HotelID&#xa;&#xa;" style="rounded=1;whiteSpace=wrap;html=1;fontSize=12;glass=0;strokeWidth=1;shadow=0;" parent="WIyWlLk6GJQsqaUBKTNV-1" vertex="1">
          <mxGeometry x="320" y="130" width="120" height="40" as="geometry" />
        </mxCell>
        <mxCell id="WIyWlLk6GJQsqaUBKTNV-8" value="No" style="rounded=0;html=1;jettySize=auto;orthogonalLoop=1;fontSize=11;endArrow=block;endFill=0;endSize=8;strokeWidth=1;shadow=0;labelBackgroundColor=none;edgeStyle=orthogonalEdgeStyle;" parent="WIyWlLk6GJQsqaUBKTNV-1" source="WIyWlLk6GJQsqaUBKTNV-10" target="WIyWlLk6GJQsqaUBKTNV-11" edge="1">
          <mxGeometry x="0.3333" y="20" relative="1" as="geometry">
            <mxPoint as="offset" />
          </mxGeometry>
        </mxCell>
        <mxCell id="WIyWlLk6GJQsqaUBKTNV-9" value="Yes" style="edgeStyle=orthogonalEdgeStyle;rounded=0;html=1;jettySize=auto;orthogonalLoop=1;fontSize=11;endArrow=block;endFill=0;endSize=8;strokeWidth=1;shadow=0;labelBackgroundColor=none;" parent="WIyWlLk6GJQsqaUBKTNV-1" source="WIyWlLk6GJQsqaUBKTNV-10" target="WIyWlLk6GJQsqaUBKTNV-12" edge="1">
          <mxGeometry y="10" relative="1" as="geometry">
            <mxPoint as="offset" />
          </mxGeometry>
        </mxCell>
        <mxCell id="WIyWlLk6GJQsqaUBKTNV-10" value="&lt;strong&gt;Room&lt;/strong&gt; table:" style="rhombus;whiteSpace=wrap;html=1;shadow=0;fontFamily=Helvetica;fontSize=12;align=center;strokeWidth=1;spacing=6;spacingTop=-4;" parent="WIyWlLk6GJQsqaUBKTNV-1" vertex="1">
          <mxGeometry x="170" y="350" width="100" height="80" as="geometry" />
        </mxCell>
        <mxCell id="hEsW2uKou0CnbDLXWxYv-22" value="" style="edgeStyle=orthogonalEdgeStyle;rounded=0;orthogonalLoop=1;jettySize=auto;html=1;" edge="1" parent="WIyWlLk6GJQsqaUBKTNV-1" source="WIyWlLk6GJQsqaUBKTNV-11" target="hEsW2uKou0CnbDLXWxYv-21">
          <mxGeometry relative="1" as="geometry" />
        </mxCell>
        <mxCell id="hEsW2uKou0CnbDLXWxYv-34" value="" style="edgeStyle=orthogonalEdgeStyle;rounded=0;orthogonalLoop=1;jettySize=auto;html=1;" edge="1" parent="WIyWlLk6GJQsqaUBKTNV-1" source="WIyWlLk6GJQsqaUBKTNV-11" target="hEsW2uKou0CnbDLXWxYv-33">
          <mxGeometry relative="1" as="geometry" />
        </mxCell>
        <mxCell id="WIyWlLk6GJQsqaUBKTNV-11" value="&lt;strong&gt;Guest&lt;/strong&gt; table:" style="rounded=1;whiteSpace=wrap;html=1;fontSize=12;glass=0;strokeWidth=1;shadow=0;" parent="WIyWlLk6GJQsqaUBKTNV-1" vertex="1">
          <mxGeometry x="160" y="510" width="120" height="40" as="geometry" />
        </mxCell>
        <mxCell id="hEsW2uKou0CnbDLXWxYv-7" value="" style="edgeStyle=orthogonalEdgeStyle;rounded=0;orthogonalLoop=1;jettySize=auto;html=1;entryX=0.163;entryY=0.757;entryDx=0;entryDy=0;entryPerimeter=0;" edge="1" parent="WIyWlLk6GJQsqaUBKTNV-1" source="WIyWlLk6GJQsqaUBKTNV-12" target="hEsW2uKou0CnbDLXWxYv-6">
          <mxGeometry relative="1" as="geometry">
            <Array as="points">
              <mxPoint x="390" y="350" />
              <mxPoint x="480" y="350" />
              <mxPoint x="480" y="400" />
              <mxPoint x="561" y="400" />
            </Array>
          </mxGeometry>
        </mxCell>
        <mxCell id="hEsW2uKou0CnbDLXWxYv-12" value="" style="edgeStyle=orthogonalEdgeStyle;rounded=0;orthogonalLoop=1;jettySize=auto;html=1;" edge="1" parent="WIyWlLk6GJQsqaUBKTNV-1" source="WIyWlLk6GJQsqaUBKTNV-12" target="hEsW2uKou0CnbDLXWxYv-11">
          <mxGeometry relative="1" as="geometry" />
        </mxCell>
        <mxCell id="WIyWlLk6GJQsqaUBKTNV-12" value="RoomID&lt;div&gt;&lt;br&gt;&lt;/div&gt;" style="rounded=1;whiteSpace=wrap;html=1;fontSize=12;glass=0;strokeWidth=1;shadow=0;" parent="WIyWlLk6GJQsqaUBKTNV-1" vertex="1">
          <mxGeometry x="330" y="380" width="120" height="40" as="geometry" />
        </mxCell>
        <mxCell id="hEsW2uKou0CnbDLXWxYv-2" value="" style="edgeStyle=orthogonalEdgeStyle;rounded=0;orthogonalLoop=1;jettySize=auto;html=1;" edge="1" parent="WIyWlLk6GJQsqaUBKTNV-1" source="WIyWlLk6GJQsqaUBKTNV-7" target="hEsW2uKou0CnbDLXWxYv-1">
          <mxGeometry relative="1" as="geometry">
            <mxPoint x="380" y="230" as="sourcePoint" />
            <mxPoint x="390" y="380" as="targetPoint" />
          </mxGeometry>
        </mxCell>
        <mxCell id="hEsW2uKou0CnbDLXWxYv-1" value="HotelName" style="rounded=1;whiteSpace=wrap;html=1;" vertex="1" parent="WIyWlLk6GJQsqaUBKTNV-1">
          <mxGeometry x="500" y="190" width="120" height="40" as="geometry" />
        </mxCell>
        <mxCell id="hEsW2uKou0CnbDLXWxYv-3" value="Location" style="rounded=1;whiteSpace=wrap;html=1;" vertex="1" parent="WIyWlLk6GJQsqaUBKTNV-1">
          <mxGeometry x="340" y="190" width="120" height="40" as="geometry" />
        </mxCell>
        <mxCell id="hEsW2uKou0CnbDLXWxYv-4" value="" style="shape=flexArrow;endArrow=block;html=1;rounded=0;endWidth=97;endSize=14.33;" edge="1" parent="WIyWlLk6GJQsqaUBKTNV-1">
          <mxGeometry width="50" height="50" relative="1" as="geometry">
            <mxPoint x="-480" y="760" as="sourcePoint" />
            <mxPoint x="-430" y="710" as="targetPoint" />
            <Array as="points">
              <mxPoint x="-460" y="740" />
            </Array>
          </mxGeometry>
        </mxCell>
        <mxCell id="hEsW2uKou0CnbDLXWxYv-5" value="" style="shape=flexArrow;endArrow=classic;html=1;rounded=0;edgeStyle=orthogonalEdgeStyle;" edge="1" parent="WIyWlLk6GJQsqaUBKTNV-1" source="WIyWlLk6GJQsqaUBKTNV-6">
          <mxGeometry width="50" height="50" relative="1" as="geometry">
            <mxPoint x="300" y="260" as="sourcePoint" />
            <mxPoint x="350" y="210" as="targetPoint" />
          </mxGeometry>
        </mxCell>
        <mxCell id="hEsW2uKou0CnbDLXWxYv-9" value="" style="edgeStyle=orthogonalEdgeStyle;rounded=0;orthogonalLoop=1;jettySize=auto;html=1;exitX=0;exitY=0;exitDx=54;exitDy=60;exitPerimeter=0;" edge="1" parent="WIyWlLk6GJQsqaUBKTNV-1">
          <mxGeometry relative="1" as="geometry">
            <mxPoint x="587.7942286340599" y="430.00076211353314" as="sourcePoint" />
            <mxPoint x="765" y="369.52" as="targetPoint" />
            <Array as="points">
              <mxPoint x="588" y="400" />
              <mxPoint x="600" y="400" />
              <mxPoint x="600" y="340" />
              <mxPoint x="765" y="340" />
            </Array>
          </mxGeometry>
        </mxCell>
        <mxCell id="hEsW2uKou0CnbDLXWxYv-10" style="edgeStyle=orthogonalEdgeStyle;rounded=0;orthogonalLoop=1;jettySize=auto;html=1;" edge="1" parent="WIyWlLk6GJQsqaUBKTNV-1" source="hEsW2uKou0CnbDLXWxYv-6">
          <mxGeometry relative="1" as="geometry">
            <mxPoint x="660" y="380" as="targetPoint" />
          </mxGeometry>
        </mxCell>
        <mxCell id="hEsW2uKou0CnbDLXWxYv-13" value="t" style="edgeLabel;html=1;align=center;verticalAlign=middle;resizable=0;points=[];" vertex="1" connectable="0" parent="hEsW2uKou0CnbDLXWxYv-10">
          <mxGeometry x="1" y="-7" relative="1" as="geometry">
            <mxPoint x="-3" y="1" as="offset" />
          </mxGeometry>
        </mxCell>
        <mxCell id="hEsW2uKou0CnbDLXWxYv-6" value="HotelID&lt;div&gt;&lt;br&gt;&lt;/div&gt;" style="shape=singleArrow;whiteSpace=wrap;html=1;arrowWidth=0.4;arrowSize=0.4;rounded=1;glass=0;strokeWidth=1;shadow=0;rotation=30;" vertex="1" parent="WIyWlLk6GJQsqaUBKTNV-1">
          <mxGeometry x="547.99" y="377.5" width="120" height="60" as="geometry" />
        </mxCell>
        <mxCell id="hEsW2uKou0CnbDLXWxYv-17" value="" style="edgeStyle=orthogonalEdgeStyle;rounded=0;orthogonalLoop=1;jettySize=auto;html=1;" edge="1" parent="WIyWlLk6GJQsqaUBKTNV-1" source="hEsW2uKou0CnbDLXWxYv-8" target="hEsW2uKou0CnbDLXWxYv-16">
          <mxGeometry relative="1" as="geometry" />
        </mxCell>
        <mxCell id="hEsW2uKou0CnbDLXWxYv-8" value="RoomNumber&lt;div&gt;&lt;br&gt;&lt;/div&gt;" style="whiteSpace=wrap;html=1;rounded=1;glass=0;strokeWidth=1;shadow=0;" vertex="1" parent="WIyWlLk6GJQsqaUBKTNV-1">
          <mxGeometry x="705" y="370" width="120" height="60" as="geometry" />
        </mxCell>
        <mxCell id="hEsW2uKou0CnbDLXWxYv-40" value="" style="edgeStyle=orthogonalEdgeStyle;rounded=0;orthogonalLoop=1;jettySize=auto;html=1;" edge="1" parent="WIyWlLk6GJQsqaUBKTNV-1" source="hEsW2uKou0CnbDLXWxYv-11" target="hEsW2uKou0CnbDLXWxYv-6">
          <mxGeometry relative="1" as="geometry" />
        </mxCell>
        <mxCell id="hEsW2uKou0CnbDLXWxYv-41" value="" style="edgeStyle=orthogonalEdgeStyle;rounded=0;orthogonalLoop=1;jettySize=auto;html=1;" edge="1" parent="WIyWlLk6GJQsqaUBKTNV-1" source="hEsW2uKou0CnbDLXWxYv-11" target="hEsW2uKou0CnbDLXWxYv-6">
          <mxGeometry relative="1" as="geometry" />
        </mxCell>
        <mxCell id="hEsW2uKou0CnbDLXWxYv-11" value="&amp;nbsp;(Primary Key)" style="rounded=1;whiteSpace=wrap;html=1;glass=0;strokeWidth=1;shadow=0;" vertex="1" parent="WIyWlLk6GJQsqaUBKTNV-1">
          <mxGeometry x="430" y="440" width="120" height="60" as="geometry" />
        </mxCell>
        <mxCell id="hEsW2uKou0CnbDLXWxYv-14" value="&lt;div&gt;&lt;font style=&quot;font-size: 3px;&quot;&gt;&amp;nbsp;(Foreign Key referencing &lt;code style=&quot;&quot;&gt;HotelID&lt;/code&gt; in the &lt;code style=&quot;&quot;&gt;Hotel&lt;/code&gt; table)&lt;/font&gt;&lt;/div&gt;" style="rounded=1;whiteSpace=wrap;html=1;" vertex="1" parent="WIyWlLk6GJQsqaUBKTNV-1">
          <mxGeometry x="610" y="350" width="50" height="30" as="geometry" />
        </mxCell>
        <mxCell id="hEsW2uKou0CnbDLXWxYv-15" style="edgeStyle=orthogonalEdgeStyle;rounded=0;orthogonalLoop=1;jettySize=auto;html=1;exitX=0.25;exitY=0;exitDx=0;exitDy=0;" edge="1" parent="WIyWlLk6GJQsqaUBKTNV-1" source="hEsW2uKou0CnbDLXWxYv-14" target="hEsW2uKou0CnbDLXWxYv-14">
          <mxGeometry relative="1" as="geometry" />
        </mxCell>
        <mxCell id="hEsW2uKou0CnbDLXWxYv-16" value="&lt;div&gt;Type&lt;/div&gt;&lt;div&gt;&lt;br&gt;&lt;/div&gt;" style="whiteSpace=wrap;html=1;rounded=1;glass=0;strokeWidth=1;shadow=0;" vertex="1" parent="WIyWlLk6GJQsqaUBKTNV-1">
          <mxGeometry x="905" y="370" width="120" height="60" as="geometry" />
        </mxCell>
        <mxCell id="hEsW2uKou0CnbDLXWxYv-18" value="&amp;nbsp;(Primary Key)" style="rounded=1;whiteSpace=wrap;html=1;fontSize=12;glass=0;strokeWidth=1;shadow=0;" vertex="1" parent="WIyWlLk6GJQsqaUBKTNV-1">
          <mxGeometry x="450" y="80" width="70" height="40" as="geometry" />
        </mxCell>
        <mxCell id="hEsW2uKou0CnbDLXWxYv-24" value="" style="edgeStyle=orthogonalEdgeStyle;rounded=0;orthogonalLoop=1;jettySize=auto;html=1;" edge="1" parent="WIyWlLk6GJQsqaUBKTNV-1" source="hEsW2uKou0CnbDLXWxYv-21" target="hEsW2uKou0CnbDLXWxYv-23">
          <mxGeometry relative="1" as="geometry" />
        </mxCell>
        <mxCell id="hEsW2uKou0CnbDLXWxYv-21" value="&lt;strong&gt;Reservation&lt;/strong&gt; table:" style="whiteSpace=wrap;html=1;rounded=1;glass=0;strokeWidth=1;shadow=0;" vertex="1" parent="WIyWlLk6GJQsqaUBKTNV-1">
          <mxGeometry x="160" y="620" width="120" height="60" as="geometry" />
        </mxCell>
        <mxCell id="hEsW2uKou0CnbDLXWxYv-26" value="" style="edgeStyle=orthogonalEdgeStyle;rounded=0;orthogonalLoop=1;jettySize=auto;html=1;" edge="1" parent="WIyWlLk6GJQsqaUBKTNV-1" source="hEsW2uKou0CnbDLXWxYv-23" target="hEsW2uKou0CnbDLXWxYv-25">
          <mxGeometry relative="1" as="geometry" />
        </mxCell>
        <mxCell id="hEsW2uKou0CnbDLXWxYv-23" value="&lt;code&gt;ReservationID&lt;/code&gt; (Primary Key)" style="whiteSpace=wrap;html=1;rounded=1;glass=0;strokeWidth=1;shadow=0;" vertex="1" parent="WIyWlLk6GJQsqaUBKTNV-1">
          <mxGeometry x="360" y="620" width="120" height="60" as="geometry" />
        </mxCell>
        <mxCell id="hEsW2uKou0CnbDLXWxYv-28" value="" style="edgeStyle=orthogonalEdgeStyle;rounded=0;orthogonalLoop=1;jettySize=auto;html=1;" edge="1" parent="WIyWlLk6GJQsqaUBKTNV-1" source="hEsW2uKou0CnbDLXWxYv-25" target="hEsW2uKou0CnbDLXWxYv-27">
          <mxGeometry relative="1" as="geometry" />
        </mxCell>
        <mxCell id="hEsW2uKou0CnbDLXWxYv-25" value="&lt;code&gt;GuestID&lt;/code&gt; (Foreign Key referencing &lt;code&gt;GuestID&lt;/code&gt; in the &lt;code&gt;Guest&lt;/code&gt; table)" style="whiteSpace=wrap;html=1;rounded=1;glass=0;strokeWidth=1;shadow=0;" vertex="1" parent="WIyWlLk6GJQsqaUBKTNV-1">
          <mxGeometry x="560" y="620" width="120" height="60" as="geometry" />
        </mxCell>
        <mxCell id="hEsW2uKou0CnbDLXWxYv-30" value="" style="edgeStyle=orthogonalEdgeStyle;rounded=0;orthogonalLoop=1;jettySize=auto;html=1;" edge="1" parent="WIyWlLk6GJQsqaUBKTNV-1" source="hEsW2uKou0CnbDLXWxYv-27" target="hEsW2uKou0CnbDLXWxYv-29">
          <mxGeometry relative="1" as="geometry" />
        </mxCell>
        <mxCell id="hEsW2uKou0CnbDLXWxYv-27" value="&lt;code&gt;RoomID&lt;/code&gt; (Foreign Key referencing &lt;code&gt;RoomID&lt;/code&gt; in the &lt;code&gt;Room&lt;/code&gt; table)" style="whiteSpace=wrap;html=1;rounded=1;glass=0;strokeWidth=1;shadow=0;" vertex="1" parent="WIyWlLk6GJQsqaUBKTNV-1">
          <mxGeometry x="760" y="620" width="120" height="60" as="geometry" />
        </mxCell>
        <mxCell id="hEsW2uKou0CnbDLXWxYv-32" value="" style="edgeStyle=orthogonalEdgeStyle;rounded=0;orthogonalLoop=1;jettySize=auto;html=1;" edge="1" parent="WIyWlLk6GJQsqaUBKTNV-1" source="hEsW2uKou0CnbDLXWxYv-29" target="hEsW2uKou0CnbDLXWxYv-31">
          <mxGeometry relative="1" as="geometry" />
        </mxCell>
        <mxCell id="hEsW2uKou0CnbDLXWxYv-29" value="CheckInDate" style="whiteSpace=wrap;html=1;rounded=1;glass=0;strokeWidth=1;shadow=0;" vertex="1" parent="WIyWlLk6GJQsqaUBKTNV-1">
          <mxGeometry x="960" y="620" width="120" height="60" as="geometry" />
        </mxCell>
        <mxCell id="hEsW2uKou0CnbDLXWxYv-31" value="CheckOutDate&lt;div&gt;&lt;br&gt;&lt;/div&gt;" style="whiteSpace=wrap;html=1;rounded=1;glass=0;strokeWidth=1;shadow=0;" vertex="1" parent="WIyWlLk6GJQsqaUBKTNV-1">
          <mxGeometry x="1160" y="620" width="120" height="60" as="geometry" />
        </mxCell>
        <mxCell id="hEsW2uKou0CnbDLXWxYv-35" value="" style="edgeStyle=orthogonalEdgeStyle;rounded=0;orthogonalLoop=1;jettySize=auto;html=1;" edge="1" parent="WIyWlLk6GJQsqaUBKTNV-1" source="hEsW2uKou0CnbDLXWxYv-33" target="hEsW2uKou0CnbDLXWxYv-11">
          <mxGeometry relative="1" as="geometry" />
        </mxCell>
        <mxCell id="hEsW2uKou0CnbDLXWxYv-36" value="" style="edgeStyle=orthogonalEdgeStyle;rounded=0;orthogonalLoop=1;jettySize=auto;html=1;" edge="1" parent="WIyWlLk6GJQsqaUBKTNV-1" source="hEsW2uKou0CnbDLXWxYv-33" target="hEsW2uKou0CnbDLXWxYv-11">
          <mxGeometry relative="1" as="geometry" />
        </mxCell>
        <mxCell id="hEsW2uKou0CnbDLXWxYv-37" value="" style="edgeStyle=orthogonalEdgeStyle;rounded=0;orthogonalLoop=1;jettySize=auto;html=1;" edge="1" parent="WIyWlLk6GJQsqaUBKTNV-1" source="hEsW2uKou0CnbDLXWxYv-33" target="hEsW2uKou0CnbDLXWxYv-11">
          <mxGeometry relative="1" as="geometry" />
        </mxCell>
        <mxCell id="hEsW2uKou0CnbDLXWxYv-38" value="" style="edgeStyle=orthogonalEdgeStyle;rounded=0;orthogonalLoop=1;jettySize=auto;html=1;" edge="1" parent="WIyWlLk6GJQsqaUBKTNV-1" source="hEsW2uKou0CnbDLXWxYv-33" target="hEsW2uKou0CnbDLXWxYv-11">
          <mxGeometry relative="1" as="geometry" />
        </mxCell>
        <mxCell id="hEsW2uKou0CnbDLXWxYv-39" value="" style="edgeStyle=orthogonalEdgeStyle;rounded=0;orthogonalLoop=1;jettySize=auto;html=1;" edge="1" parent="WIyWlLk6GJQsqaUBKTNV-1" source="hEsW2uKou0CnbDLXWxYv-33" target="hEsW2uKou0CnbDLXWxYv-11">
          <mxGeometry relative="1" as="geometry" />
        </mxCell>
        <mxCell id="hEsW2uKou0CnbDLXWxYv-33" value="&lt;code&gt;GuestID&lt;/code&gt; (Primary Key)" style="whiteSpace=wrap;html=1;rounded=1;glass=0;strokeWidth=1;shadow=0;" vertex="1" parent="WIyWlLk6GJQsqaUBKTNV-1">
          <mxGeometry x="330" y="530" width="120" height="60" as="geometry" />
        </mxCell>
        <mxCell id="hEsW2uKou0CnbDLXWxYv-44" value="" style="edgeStyle=orthogonalEdgeStyle;rounded=0;orthogonalLoop=1;jettySize=auto;html=1;" edge="1" parent="WIyWlLk6GJQsqaUBKTNV-1" source="hEsW2uKou0CnbDLXWxYv-42" target="hEsW2uKou0CnbDLXWxYv-43">
          <mxGeometry relative="1" as="geometry" />
        </mxCell>
        <mxCell id="hEsW2uKou0CnbDLXWxYv-42" value="name" style="rounded=1;whiteSpace=wrap;html=1;" vertex="1" parent="WIyWlLk6GJQsqaUBKTNV-1">
          <mxGeometry x="520" y="530" width="120" height="60" as="geometry" />
        </mxCell>
        <mxCell id="hEsW2uKou0CnbDLXWxYv-43" value="ContactInfo&lt;div&gt;&lt;br&gt;&lt;/div&gt;" style="rounded=1;whiteSpace=wrap;html=1;" vertex="1" parent="WIyWlLk6GJQsqaUBKTNV-1">
          <mxGeometry x="720" y="530" width="120" height="60" as="geometry" />
        </mxCell>
        <mxCell id="hEsW2uKou0CnbDLXWxYv-45" value="&lt;div style=&quot;align-items: center; display: flex; font-family: Inter, sans-serif; text-align: start; background-color: rgb(255, 255, 255);&quot; class=&quot;CheckpointsList_superSkillWrapper__I-6l3&quot;&gt;&lt;p style=&quot;line-height: 18px;&quot; class=&quot;CheckpointsList_superSkillName__UfhV0&quot;&gt;&lt;font style=&quot;color: light-dark(rgb(249, 11, 11), rgb(237, 237, 237)); font-size: 40px;&quot;&gt;Relational model&lt;/font&gt;&lt;/p&gt;&lt;div style=&quot;font-size: 14px;&quot;&gt;&lt;br&gt;&lt;/div&gt;&lt;/div&gt;" style="shape=hexagon;perimeter=hexagonPerimeter2;whiteSpace=wrap;html=1;fixedSize=1;size=25;" vertex="1" parent="WIyWlLk6GJQsqaUBKTNV-1">
          <mxGeometry x="560" y="-170" width="410" height="170" as="geometry" />
        </mxCell>
      </root>
    </mxGraphModel>
  </diagram>
</mxfile>
